<svg xmlns="http://www.w3.org/2000/svg" xmlns:xlink="http://www.w3.org/1999/xlink" width="64" zoomAndPan="magnify" viewBox="0 0 48 48" height="64" preserveAspectRatio="xMidYMid meet" version="1.0"><defs><g/><clipPath id="52c0060117"><path d="M 0.488281 0 L 47.507812 0 L 47.507812 47.019531 L 0.488281 47.019531 Z M 0.488281 0 " clip-rule="nonzero"/></clipPath></defs><g clip-path="url(#52c0060117)"><path fill="#ffffff" d="M 0.488281 0 L 47.511719 0 L 47.511719 47.019531 L 0.488281 47.019531 Z M 0.488281 0 " fill-opacity="1" fill-rule="nonzero"/><path fill="#050505" d="M 0.488281 0 L 47.511719 0 L 47.511719 47.019531 L 0.488281 47.019531 Z M 0.488281 0 " fill-opacity="1" fill-rule="nonzero"/></g><g fill="#ffffff" fill-opacity="1"><g transform="translate(8.588647, 32.326531)"><g><path d="M 2.1875 -16.40625 L 7.6875 -16.40625 C 8.707031 -16.40625 9.628906 -16.234375 10.453125 -15.890625 C 11.285156 -15.546875 11.992188 -15.03125 12.578125 -14.34375 C 13.171875 -13.664062 13.625 -12.8125 13.9375 -11.78125 C 14.257812 -10.757812 14.421875 -9.566406 14.421875 -8.203125 C 14.421875 -6.835938 14.257812 -5.640625 13.9375 -4.609375 C 13.625 -3.585938 13.171875 -2.734375 12.578125 -2.046875 C 11.992188 -1.367188 11.285156 -0.859375 10.453125 -0.515625 C 9.628906 -0.171875 8.707031 0 7.6875 0 L 2.1875 0 Z M 7.6875 -1.734375 C 8.363281 -1.734375 8.984375 -1.847656 9.546875 -2.078125 C 10.109375 -2.304688 10.59375 -2.640625 11 -3.078125 C 11.40625 -3.515625 11.722656 -4.050781 11.953125 -4.6875 C 12.179688 -5.320312 12.296875 -6.046875 12.296875 -6.859375 L 12.296875 -9.546875 C 12.296875 -10.359375 12.179688 -11.082031 11.953125 -11.71875 C 11.722656 -12.351562 11.40625 -12.890625 11 -13.328125 C 10.59375 -13.765625 10.109375 -14.097656 9.546875 -14.328125 C 8.984375 -14.554688 8.363281 -14.671875 7.6875 -14.671875 L 4.15625 -14.671875 L 4.15625 -1.734375 Z M 7.6875 -1.734375 "/></g></g></g><g fill="#ffffff" fill-opacity="1"><g transform="translate(24.364028, 32.326531)"><g><path d="M 4.15625 0 L 2.1875 0 L 2.1875 -16.40625 L 8.71875 -16.40625 C 10.164062 -16.40625 11.289062 -16.003906 12.09375 -15.203125 C 12.90625 -14.410156 13.3125 -13.265625 13.3125 -11.765625 C 13.3125 -10.554688 13.03125 -9.5625 12.46875 -8.78125 C 11.914062 -8.007812 11.097656 -7.5 10.015625 -7.25 L 13.78125 0 L 11.546875 0 L 8 -7.0625 L 4.15625 -7.0625 Z M 8.71875 -8.75 C 9.507812 -8.75 10.117188 -8.953125 10.546875 -9.359375 C 10.972656 -9.765625 11.1875 -10.34375 11.1875 -11.09375 L 11.1875 -12.328125 C 11.1875 -13.078125 10.972656 -13.65625 10.546875 -14.0625 C 10.117188 -14.46875 9.507812 -14.671875 8.71875 -14.671875 L 4.15625 -14.671875 L 4.15625 -8.75 Z M 8.71875 -8.75 "/></g></g></g></svg>